HIERARCHY
ROOT Hips
{
	OFFSET 0.00000 0.00000 0.00000
	CHANNELS 6 Xposition Yposition Zposition Zrotation Yrotation Xrotation 
	JOINT LHipJoint
	{
		OFFSET 0 0 0
		CHANNELS 3 Zrotation Yrotation Xrotation
		JOINT LeftUpLeg
		{
			OFFSET 1.40252 -1.71424 0.59123
			CHANNELS 3 Zrotation Yrotation Xrotation
			JOINT LeftLeg
			{
				OFFSET 2.50071 -6.87065 0.00000
				CHANNELS 3 Zrotation Yrotation Xrotation
				JOINT LeftFoot
				{
					OFFSET 2.50834 -6.89162 0.00000
					CHANNELS 3 Zrotation Yrotation Xrotation
					JOINT LeftToeBase
					{
						OFFSET 0.21528 -0.59149 1.64448
						CHANNELS 3 Zrotation Yrotation Xrotation
						End Site
						{
							OFFSET 0.00000 -0.00000 0.87921
						}
					}
				}
			}
		}
	}
	JOINT RHipJoint
	{
		OFFSET 0 0 0
		CHANNELS 3 Zrotation Yrotation Xrotation
		JOINT RightUpLeg
		{
			OFFSET -1.53651 -1.71424 0.59123
			CHANNELS 3 Zrotation Yrotation Xrotation
			JOINT RightLeg
			{
				OFFSET -2.45783 -6.75285 0.00000
				CHANNELS 3 Zrotation Yrotation Xrotation
				JOINT RightFoot
				{
					OFFSET -2.51921 -6.92147 0.00000
					CHANNELS 3 Zrotation Yrotation Xrotation
					JOINT RightToeBase
					{
						OFFSET -0.21777 -0.59831 1.59676
						CHANNELS 3 Zrotation Yrotation Xrotation
						End Site
						{
							OFFSET -0.00000 -0.00000 0.85779
						}
					}
				}
			}
		}
	}
	JOINT LowerBack
	{
		OFFSET 0 0 0
		CHANNELS 3 Zrotation Yrotation Xrotation
		JOINT Spine
		{
			OFFSET 0.02212 2.07622 0.03776
			CHANNELS 3 Zrotation Yrotation Xrotation
			JOINT Spine1
			{
				OFFSET -0.00949 2.08009 -0.00123
				CHANNELS 3 Zrotation Yrotation Xrotation
				JOINT Neck
				{
					OFFSET 0 0 0
					CHANNELS 3 Zrotation Yrotation Xrotation
					JOINT Neck1
					{
						OFFSET 0.00288 1.67184 0.11155
						CHANNELS 3 Zrotation Yrotation Xrotation
						JOINT Head
						{
							OFFSET -0.02412 1.66997 -0.22040
							CHANNELS 3 Zrotation Yrotation Xrotation
							End Site
							{
								OFFSET -0.01026 1.69043 -0.08683
							}
						}
					}
				}
				JOINT LeftShoulder
				{
					OFFSET 0 0 0
					CHANNELS 3 Zrotation Yrotation Xrotation
					JOINT LeftArm
					{
						OFFSET 3.97941 0.74048 0.81462
						CHANNELS 3 Zrotation Yrotation Xrotation
						JOINT LeftForeArm
						{
							OFFSET 5.01834 -0.00000 -0.00000
							CHANNELS 3 Zrotation Yrotation Xrotation
							JOINT LeftHand
							{
								OFFSET 3.48690 -0.00000 0.00000
								CHANNELS 3 Zrotation Yrotation Xrotation
								JOINT LeftFingerBase
								{
									OFFSET 0 0 0
									CHANNELS 3 Zrotation Yrotation Xrotation
									JOINT LeftHandIndex1
									{
										OFFSET 0.76799 -0.00000 0.00000
										CHANNELS 3 Zrotation Yrotation Xrotation
										End Site
										{
											OFFSET 0.61917 -0.00000 0.00000
										}
									}
								}
								JOINT LThumb
								{
									OFFSET 0 0 0
									CHANNELS 3 Zrotation Yrotation Xrotation
									End Site
									{
										OFFSET 0.62863 -0.00000 0.62863
									}
								}
							}
						}
					}
				}
				JOINT RightShoulder
				{
					OFFSET 0 0 0
					CHANNELS 3 Zrotation Yrotation Xrotation
					JOINT RightArm
					{
						OFFSET -3.88702 1.02123 0.44091
						CHANNELS 3 Zrotation Yrotation Xrotation
						JOINT RightForeArm
						{
							OFFSET -4.70164 -0.00000 0.00000
							CHANNELS 3 Zrotation Yrotation Xrotation
							JOINT RightHand
							{
								OFFSET -3.49911 -0.00000 0.00000
								CHANNELS 3 Zrotation Yrotation Xrotation
								JOINT RightFingerBase
								{
									OFFSET 0 0 0
									CHANNELS 3 Zrotation Yrotation Xrotation
									JOINT RightHandIndex1
									{
										OFFSET -0.73933 -0.00000 0.00000
										CHANNELS 3 Zrotation Yrotation Xrotation
										End Site
										{
											OFFSET -0.59607 -0.00000 0.00000
										}
									}
								}
								JOINT RThumb
								{
									OFFSET 0 0 0
									CHANNELS 3 Zrotation Yrotation Xrotation
									End Site
									{
										OFFSET -0.60517 -0.00000 0.60517
									}
								}
							}
						}
					}
				}
			}
		}
	}
}
MOTION
Frames: 11
Frame Time: .0083333
0.6365 17.1135 -5.3445 -185.6280 178.7720 -544.6010 0.0000 0.0000 0.0000 -9.2982 9.3265 -0.7505 1.6710 8.1442 23.1529 2.4334 -7.9958 -28.1061 8.0256 16.1380 52.6548 0.0000 0.0000 0.0000 9.0944 4.9286 -16.2132 -4.2286 -12.4585 37.3738 0.1239 -11.9027 6.4789 -6.4924 14.8891 -46.9273 4.6097 -6.5879 7.9424 6.8078 -8.2211 1.9578 5.3054 -4.1295 -2.0107 2.7639 5.9644 -12.4303 -13.0705 9.3920 10.6977 -3.7232 3.7440 6.0787 -0.0000 0.0000 0.0000 53.8738 -67.5335 -60.0540 33.1547 -43.4486 -13.5284 -0.0000 0.0000 -69.2227 29.9368 66.6150 27.8599 -7.1250 0.0000 -0.0000 -127.4492 -77.0154 138.6126 -0.0000 0.0000 0.0000 99.9448 29.3891 96.6629 -92.8401 59.9695 -62.4593 0.0000 -0.0000 -4.2810 6.4649 3.4234 0.3877 7.1250 -0.0000 -0.0000 24.5105 -26.2289 12.2440
0.6483 17.0730 -5.3235 -185.4900 178.2270 -544.7140 0.0000 0.0000 0.0000 -9.4354 9.2817 -1.0212 1.7564 8.3391 23.7488 2.4349 -9.0705 -28.0766 8.3904 16.3990 53.9570 0.0000 0.0000 0.0000 8.8224 4.7859 -16.5145 -4.4543 -12.7416 38.4086 0.1929 -12.3060 5.6999 -6.3483 14.7576 -46.3642 4.8354 -6.1985 7.4472 6.8118 -7.7171 1.8250 5.0873 -3.8756 -1.9335 2.6446 5.6507 -12.3989 -13.2915 9.0729 11.1261 -3.8097 3.5510 6.1884 0.0000 0.0000 0.0000 51.0442 -66.1497 -53.8341 37.6116 -46.5895 -16.6829 -0.0000 0.0000 -69.2079 14.7446 64.8307 13.3976 -7.1250 0.0000 -0.0000 -101.6018 -75.9680 116.1011 0.0000 0.0000 0.0000 100.0303 29.4438 97.9342 -92.2849 59.9803 -61.9786 0.0000 -0.0000 -3.4093 7.3975 5.2506 0.6807 7.1250 -0.0000 -0.0000 24.7731 -24.5251 13.5089
0.6595 17.0352 -5.2983 -185.2130 177.6050 -544.8250 0.0000 0.0000 0.0000 -9.7286 9.3136 -1.2349 1.8267 8.4953 24.2289 2.4303 -10.1327 -28.0454 8.7590 16.6501 55.2528 0.0000 0.0000 0.0000 8.3611 4.7909 -16.7433 -4.6948 -13.0316 39.4870 0.2617 -12.6775 4.8710 -6.2017 14.6210 -45.7858 5.3366 -5.6700 6.7503 6.4710 -7.0452 1.8324 4.3165 -3.5338 -1.6785 2.5385 5.2278 -12.6750 -13.0388 8.5613 11.7851 -3.7620 3.2789 6.3831 0.0000 -0.0000 0.0000 49.3860 -64.1925 -48.7500 42.8564 -49.6740 -20.5912 -0.0000 0.0000 -69.9227 2.2237 62.2227 1.9677 -7.1250 0.0000 -0.0000 -83.4028 -72.7651 101.0325 0.0000 -0.0000 0.0000 100.0990 29.4135 98.1911 -92.1123 59.9831 -61.8292 0.0000 -0.0000 -1.3707 7.6386 6.3210 0.8460 7.1250 -0.0000 -0.0000 24.7240 -23.5374 14.1117
0.6703 17.0021 -5.2710 -184.9050 176.8830 -544.8450 0.0000 0.0000 0.0000 -10.1103 9.2595 -1.5091 1.8932 8.6400 24.6755 2.4386 -10.6841 -28.1053 8.7975 16.6756 55.3871 0.0000 0.0000 0.0000 7.8277 4.8607 -16.9956 -4.9409 -13.3169 40.5666 0.3209 -13.0023 4.1402 -6.1188 14.5425 -45.4566 5.4255 -5.0970 6.3157 6.4406 -6.2967 1.5931 4.1431 -3.1588 -1.7253 2.1016 4.8096 -12.8759 -12.7570 8.1434 12.6946 -3.6447 3.0314 6.6416 0.0000 -0.0000 0.0000 46.7997 -62.3867 -44.4302 48.6332 -52.4292 -25.0867 -0.0000 0.0000 -70.4837 -8.9848 59.5984 -7.7656 -7.1250 0.0000 -0.0000 -94.2150 69.2861 -72.3585 0.0000 -0.0000 0.0000 99.2121 28.8205 97.4130 -92.3063 59.9799 -61.9971 0.0000 0.0000 0.4849 8.1565 7.0692 1.0105 7.1250 -0.0000 -0.0000 24.9243 -22.8367 14.7042
0.6824 16.9714 -5.2415 -184.6690 176.0770 -544.7470 0.0000 0.0000 0.0000 -10.5002 8.9690 -1.7953 1.9445 8.7495 25.0149 2.4582 -10.8799 -28.2259 8.7040 16.6134 55.0607 0.0000 0.0000 0.0000 7.3317 4.9326 -17.3146 -5.1813 -13.5851 41.6001 0.3638 -13.2161 3.5643 -6.0675 14.4934 -45.2518 5.7059 -4.5448 5.7765 6.2935 -5.5677 1.2503 3.7470 -2.7949 -1.8460 1.9599 4.3300 -12.5320 -12.5427 7.5415 13.2540 -3.6250 2.7421 6.6954 0.0000 -0.0000 0.0000 43.7063 -60.4560 -40.2950 55.2029 -54.8899 -30.3819 -0.0000 0.0000 -69.1367 -16.9388 57.6377 -14.4270 -7.1250 0.0000 -0.0000 -92.1170 66.5955 -66.6815 0.0000 -0.0000 0.0000 97.9586 27.6942 95.8515 -92.7516 59.9714 -62.3827 0.0000 0.0000 2.0380 8.6155 7.5281 1.1372 7.1250 -0.0000 -0.0000 25.1391 -22.4027 15.1422
0.6975 16.9404 -5.2126 -184.4220 175.2600 -544.7510 0.0000 0.0000 0.0000 -10.9366 8.5929 -1.8268 1.9711 8.8057 25.1894 2.4853 -10.9908 -28.3875 8.6299 16.5636 54.8013 0.0000 0.0000 0.0000 6.8113 4.9454 -17.5100 -5.4143 -13.8357 42.5833 0.3797 -13.1979 3.1984 -6.0067 14.4349 -45.0088 6.0040 -4.0061 5.3082 6.0787 -4.8641 1.0458 3.2769 -2.4440 -1.8561 1.8484 3.8095 -12.1902 -12.2471 6.8266 13.5315 -3.5913 2.4189 6.6504 -0.0000 0.0000 0.0000 40.7258 -58.3719 -37.2746 61.6924 -56.7443 -35.7529 -0.0000 0.0000 -65.8628 -23.7194 56.9855 -20.2252 -7.1250 0.0000 -0.0000 -93.7000 64.3560 -65.4936 -0.0000 0.0000 0.0000 96.3653 26.3543 93.7432 -93.4497 59.9550 -62.9871 0.0000 0.0000 2.8313 9.1398 7.5445 1.2101 7.1250 -0.0000 -0.0000 25.4788 -22.3709 15.4156
0.7117 16.9121 -5.1855 -184.2440 174.4570 -544.8570 0.0000 0.0000 0.0000 -11.2436 8.3018 -1.7132 1.9879 8.8408 25.2985 2.5253 -11.0118 -28.6194 8.4847 16.4645 54.2905 0.0000 0.0000 0.0000 6.3990 4.8913 -17.6301 -5.6540 -14.0845 43.5768 0.3899 -13.1565 2.9080 -5.9288 14.3590 -44.6953 6.3205 -3.4715 4.9250 5.8555 -4.1730 1.0082 2.7937 -2.0975 -1.7280 1.8595 3.2952 -12.1474 -11.8879 6.0912 13.8217 -3.5539 2.0858 6.6646 -0.0000 0.0000 0.0000 37.8448 -55.9872 -34.7958 67.8409 -58.0608 -40.9346 -0.0000 0.0000 -60.3174 -29.9266 55.6707 -25.4251 -7.1250 0.0000 -0.0000 -94.3070 62.2080 -63.1868 -0.0000 0.0000 0.0000 94.7568 24.8475 91.1775 -94.3085 59.9297 -63.7304 0.0000 0.0000 2.9296 9.8810 6.9596 1.2091 7.1250 -0.0000 -0.0000 26.0778 -22.8781 15.5204
0.7231 16.8908 -5.1588 -184.1950 173.6230 -544.9640 0.0000 0.0000 0.0000 -11.3078 8.2099 -1.6798 2.0082 8.8830 25.4302 2.5512 -10.9629 -28.7672 8.2366 16.2905 53.4104 0.0000 0.0000 0.0000 6.1531 4.7698 -17.7795 -5.9059 -14.3365 44.6029 0.4081 -13.2285 2.6053 -5.9041 14.3347 -44.5955 6.6099 -2.9032 4.6165 5.7090 -3.4339 0.9970 2.4126 -1.7268 -1.5936 1.9505 2.7209 -12.2356 -11.5044 5.2543 14.1168 -3.5302 1.7063 6.6998 0.0000 -0.0000 0.0000 35.6813 -53.6954 -33.4352 72.0933 -58.7531 -44.5573 -0.0000 0.0000 -52.8298 -35.6000 53.7287 -29.9935 -7.1250 0.0000 -0.0000 -94.1573 60.1044 -59.8390 0.0000 -0.0000 0.0000 92.9321 22.9018 88.0635 -95.6842 59.8776 -64.9206 0.0000 0.0000 2.8796 10.6215 6.0335 1.1293 7.1250 -0.0000 -0.0000 26.7533 -23.6901 15.4505
0.7390 16.8670 -5.1341 -183.9820 172.8990 -545.2900 0.0000 0.0000 0.0000 -11.4933 8.4014 -1.3601 2.0090 8.8849 25.4358 2.5477 -10.9957 -28.7477 8.0078 16.1250 52.5907 0.0000 0.0000 0.0000 5.7355 4.6996 -17.7340 -6.1834 -14.6037 45.7134 0.4152 -13.2195 2.4210 -6.0018 14.4300 -44.9888 6.6485 -2.3053 4.7244 5.5508 -2.6286 1.0383 2.1776 -1.3245 -1.6143 1.4745 2.2408 -12.7289 -10.5288 4.6043 14.8686 -3.2027 1.4071 6.9429 0.0000 0.0000 0.0000 33.6882 -51.2975 -31.9690 74.4788 -59.0699 -46.6003 -0.0000 0.0000 -46.7342 -38.0115 51.5099 -31.4574 -7.1250 0.0000 -0.0000 -92.1547 58.8964 -55.4495 0.0000 0.0000 0.0000 90.8064 20.5870 84.6671 -97.1570 59.8056 -66.1941 0.0000 0.0000 2.4088 10.9561 4.9106 0.9494 7.1250 -0.0000 -0.0000 27.2189 -24.6927 15.0598
0.7553 16.8433 -5.1113 -183.8320 172.2150 -545.7000 0.0000 0.0000 0.0000 -11.5913 8.6269 -0.9734 2.0137 8.8945 25.4658 2.5316 -11.2027 -28.6625 7.8636 16.0180 52.0698 0.0000 0.0000 0.0000 5.4200 4.7434 -17.6366 -6.4850 -14.8824 46.8984 0.4084 -13.1485 2.4636 -6.1199 14.5435 -45.4609 6.8108 -1.7658 4.9778 5.3596 -1.8837 1.1291 1.8468 -0.9529 -1.6649 0.5199 1.9250 -13.5357 -9.0367 4.2200 16.0151 -2.6027 1.2369 7.3769 0.0000 -0.0000 0.0000 32.3133 -48.9588 -30.5637 74.2750 -59.0447 -46.4254 -0.0000 0.0000 -41.0918 -37.5161 49.3414 -30.2181 -7.1250 0.0000 -0.0000 -88.6048 58.4743 -50.5444 0.0000 -0.0000 0.0000 88.5916 17.8560 81.3974 -98.8872 59.6994 -67.6888 0.0000 0.0000 2.1816 10.8618 3.3769 0.6475 7.1250 -0.0000 -0.0000 27.5114 -26.0834 14.2297
0.7690 16.8229 -5.0926 -183.7880 171.5950 -546.1020 0.0000 0.0000 0.0000 -11.5808 8.8150 -0.6750 2.0386 8.9460 25.6267 2.5238 -11.3973 -28.6254 7.7433 15.9271 51.6326 0.0000 0.0000 0.0000 5.2535 4.9496 -17.6237 -6.8039 -15.1645 48.1287 0.3845 -12.9648 2.7239 -5.9073 14.3379 -44.6086 7.0509 -1.2306 5.3351 5.1809 -1.1289 1.2217 1.4842 -0.5781 -1.7629 0.0390 1.5390 -13.8481 -8.1370 3.6662 16.4357 -2.2883 1.0048 7.5125 0.0000 -0.0000 0.0000 31.1565 -46.5911 -28.8386 73.4174 -58.9350 -45.6904 -0.0000 0.0000 -36.0664 -36.8577 47.9046 -29.0861 -7.1250 0.0000 -0.0000 -86.0579 58.2297 -47.2479 0.0000 -0.0000 0.0000 86.6728 15.2788 78.2829 -99.2746 59.6725 -68.0232 0.0000 0.0000 1.9503 10.1973 1.5072 0.2711 7.1250 -0.0000 -0.0000 27.5197 -27.8040 12.9446
